# xmcd
#
# Track frame offsets:
#	150
#	21575
#	44490
#	70827
#	94640
#	126812
#	155947
#	178945
#	209020
#	247397
#	278975
#	307785
#
# Disc length: 4451 seconds
#
# Revision: 0
# Processed by: cddbd v1.5.1PL2 Copyright (c) Steve Scherf et al.
# Submitted via: SynApp - FreeCDDB Version: 2.0
#
DISCID=bc11610c
DTITLE=Brings, Rolly and Band - Sonnenbrell
DYEAR=1995
DGENRE=A capella
TTITLE0=Faust III
TTITLE1=Marizebill
TTITLE2=Anni un Manni
TTITLE3=Casablanca
TTITLE4=Blues Freak
TTITLE5=Dä falsche Klingelton
TTITLE6=Minne Leed
TTITLE7=Rauch
TTITLE8=Sonnebrell
TTITLE9=D'r hillije Ignoratius
TTITLE10=Lang allt Jon
TTITLE11=Venloer Stross
EXTD=
EXTT0=
EXTT1=
EXTT2=
EXTT3=
EXTT4=
EXTT5=
EXTT6=
EXTT7=
EXTT8=
EXTT9=
EXTT10=
EXTT11=
PLAYORDER=
